# xmcd
#
# Track frame offsets:
#	150
#	8940
#	17654
#	30295
#	39342
#	55093
#	65797
#	79107
#	88663
#	101001
#	111944
#	124351
#	134231
#	146925
#	155346
#	167802
#	185484
#	197446
#	211329
#	223881
#	235028
#	244133
#	264184
#	275364
#	285145
#	295574
#	310095
#	319512
#	329830
#	339892
#	347752
#
# Disc length: 4772 seconds
#
# Revision: 0
# Processed by: cddbd v1.4PL0 Copyright (c) Steve Scherf et al.
# Submitted via: EasyCDDAExtractor 4.6.9.1
#
DISCID=c712a21f
DTITLE=Elvis Presley - Gold - The Very Best Of The King
DYEAR=1900
DGENRE=Blues
TTITLE0=Elvis Presley - Tutti Frutti
TTITLE1=Elvis Presley - All Shook Up
TTITLE2=Elvis Presley - Burning Love
TTITLE3=Elvis Presley - Don't Be Cruel
TTITLE4=Elvis Presley - Fever
TTITLE5=Elvis Presley - Good Luck Charm
TTITLE6=Elvis Presley - Can't Help Falling In Love
TTITLE7=Elvis Presley - Heartbreak Hotel
TTITLE8=Elvis Presley - In The Ghetto
TTITLE9=Elvis Presley - Jailhouse Rock
TTITLE10=Elvis Presley - Kiss Me Quick
TTITLE11=Elvis Presley - A Big Hunk O' Love
TTITLE12=Elvis Presley - Love Letters
TTITLE13=Elvis Presley - Hard Headed Woman
TTITLE14=Elvis Presley - Don't Cry Daddy
TTITLE15=Elvis Presley - My Way
TTITLE16=Elvis Presley - Love Me Tender
TTITLE17=Elvis Presley - Are You Lonesome Tonight 
TTITLE18=Elvis Presley - Don't
TTITLE19=Elvis Presley - One Night
TTITLE20=Elvis Presley - Wooden Heart
TTITLE21=Elvis Presley - Suspicious Minds
TTITLE22=Elvis Presley - You Don't Have To Say You Love Me
TTITLE23=Elvis Presley - My Baby Left Me
TTITLE24=Elvis Presley - Viva Las Vegas
TTITLE25=Elvis Presley - It's Now Or Never
TTITLE26=Elvis Presley - Return To Sender
TTITLE27=Elvis Presley - Stuck On You
TTITLE28=Elvis Presley - Hound Dog
TTITLE29=Elvis Presley - (Let Me Be Your) Teddy Bear
TTITLE30=Elvis Presley - Trouble
EXTD=
EXTT0=
EXTT1=
EXTT2=
EXTT3=
EXTT4=
EXTT5=
EXTT6=
EXTT7=
EXTT8=
EXTT9=
EXTT10=
EXTT11=
EXTT12=
EXTT13=
EXTT14=
EXTT15=
EXTT16=
EXTT17=
EXTT18=
EXTT19=
EXTT20=
EXTT21=
EXTT22=
EXTT23=
EXTT24=
EXTT25=
EXTT26=
EXTT27=
EXTT28=
EXTT29=
EXTT30=
PLAYORDER=
